<?xml version="1.0" encoding="UTF-8" standalone="no"?>
<!DOCTYPE svg PUBLIC "-//W3C//DTD SVG 1.1//EN" "http://www.w3.org/Graphics/SVG/1.1/DTD/svg11.dtd">
<svg width="100%" height="100%" viewBox="0 0 3280 899" version="1.1" xmlns="http://www.w3.org/2000/svg" xmlns:xlink="http://www.w3.org/1999/xlink" xml:space="preserve" xmlns:serif="http://www.serif.com/" style="fill-rule:evenodd;clip-rule:evenodd;stroke-linejoin:round;stroke-miterlimit:1.41421;">
    <g transform="matrix(0.0232323,0,0,-0.0232323,2629.94,357.641)">
        <g transform="matrix(1.62537,0,0,1.62537,-18428.1,-1951.71)">
            <path d="M866,8974C725,8940 584,8830 516,8701C445,8566 450,8803 450,5732C450,2983 450,2959 470,2920C481,2899 506,2869 527,2853L563,2825L3707,2822C6846,2820 6851,2820 6890,2840C6912,2851 6942,2879 6957,2902L6985,2944L6988,5712C6990,8141 6988,8489 6975,8553C6936,8740 6809,8886 6622,8959L6555,8985L3740,8987C1336,8988 916,8986 866,8974Z" style="fill:rgb(76,0,155);fill-rule:nonzero;"/>
        </g>
        <g transform="matrix(1.62537,0,0,1.62537,-18428.1,-1951.71)">
            <path d="M7790,7846C7652,7806 7569,7727 7528,7598C7511,7540 7510,7438 7510,4904L7510,2270L6100,2270L4691,2270L4742,2223C4952,2026 5118,1727 5177,1438L5195,1350L8169,1350L8175,1388C8253,1845 8554,2256 8967,2468C9634,2809 10438,2615 10874,2006C11007,1820 11082,1638 11136,1372L11140,1350L12646,1350L12696,1375C12724,1389 12756,1415 12770,1437L12795,1473L12798,1789C12800,1992 12797,2118 12791,2141C12776,2190 12746,2227 12699,2250C12664,2268 12640,2270 12416,2270L12171,2270L12167,3618C12164,5116 12169,4992 12095,5217C12048,5359 11995,5460 11867,5650C11295,6503 10765,7280 10708,7348C10505,7590 10211,7761 9873,7832C9766,7854 9760,7855 8800,7857C8030,7859 7826,7856 7790,7846ZM9997,6841C10033,6821 10105,6722 10487,6181C10733,5831 10945,5525 10957,5501C10984,5449 10986,5404 10965,5353C10944,5303 10923,5281 10875,5259C10837,5241 10779,5240 9662,5240C8629,5240 8485,5242 8453,5255C8403,5276 8381,5297 8359,5345C8342,5383 8340,5426 8340,6053C8340,6781 8338,6757 8398,6813C8459,6871 8441,6870 9230,6867L9955,6865L9997,6841Z" style="fill:rgb(76,0,155);fill-rule:nonzero;"/>
        </g>
        <g transform="matrix(1.62537,0,0,1.62537,-18428.1,-1951.71)">
            <path d="M105,2253C58,2229 32,2200 15,2156C2,2121 0,2066 2,1794L5,1473L30,1436C45,1414 75,1389 105,1375L155,1350L1189,1352L2223,1355L2241,1442C2297,1713 2432,1967 2628,2171L2722,2270L1429,2270C269,2269 132,2268 105,2253Z" style="fill:rgb(76,0,155);fill-rule:nonzero;"/>
        </g>
        <g transform="matrix(1.62537,0,0,1.62537,-18428.1,-1951.71)">
            <path d="M3520,2255C3280,2215 3039,2085 2879,1912C2461,1457 2472,767 2905,335C3030,209 3181,116 3348,60C3762,-79 4219,33 4520,346C4663,494 4756,657 4808,848C4832,936 4834,962 4834,1135C4835,1313 4833,1331 4807,1424C4686,1861 4338,2177 3896,2255C3791,2273 3625,2273 3520,2255ZM3849,1685C4031,1642 4191,1489 4251,1300C4279,1215 4281,1070 4256,985C4198,789 4041,637 3845,585C3776,567 3663,565 3588,581C3404,619 3231,774 3168,958C3138,1047 3136,1216 3164,1300C3227,1489 3379,1635 3561,1684C3632,1703 3769,1703 3849,1685Z" style="fill:rgb(76,0,155);fill-rule:nonzero;"/>
        </g>
        <g transform="matrix(1.62537,0,0,1.62537,-18428.1,-1951.71)">
            <path d="M9462,2255C9237,2214 9031,2110 8871,1956C8627,1720 8509,1424 8523,1086C8545,558 8913,132 9445,18C9526,1 9777,1 9865,19C10471,139 10873,713 10775,1319C10736,1556 10630,1762 10456,1936C10283,2108 10082,2213 9846,2255C9740,2273 9563,2273 9462,2255ZM9854,1666C10077,1581 10220,1373 10220,1135C10220,983 10162,843 10054,736C9764,445 9271,552 9124,936C9092,1020 9080,1170 9099,1258C9143,1457 9308,1630 9510,1685C9598,1709 9767,1700 9854,1666Z" style="fill:rgb(76,0,155);fill-rule:nonzero;"/>
        </g>
    </g>
    <g transform="matrix(36.3545,0,0,36.3545,-55297.3,-17574.1)">
        <text x="1536.12px" y="494.55px" style="font-family:'Impact', sans-serif;font-stretch:condensed;font-size:12px;">DELIVERY</text>
        <text x="1536.12px" y="506.55px" style="font-family:'Impact', sans-serif;font-stretch:condensed;font-size:12px;">CONNECTION</text>
    </g>
</svg>
